# xmcd
#
# Track frame offsets:
#	150
#	17142
#	38435
#	59315
#	78345
#	99972
#	120717
#	136697
#	156555
#	177917
#	200600
#
# Disc length: 2900 seconds
#
# Revision: 1
# Processed by: cddbd v1.5.1PL0 Copyright (c) Steve Scherf et al.
# Submitted via: CDex 1.50Beta5
#
DISCID=870b520b
DTITLE=木村佳乃 - GIRL
DYEAR=2000
DGENRE=Pop
TTITLE0=girl
TTITLE1=恋する日曜日
TTITLE2=Calling in the rain
TTITLE3=空飛ぶ自転車
TTITLE4=Sweetest Song
TTITLE5=あしたは…
TTITLE6=雨の日はふたりで
TTITLE7=Mysterious Woman
TTITLE8=Like a Dolphin
TTITLE9=・イブは泣かないで
TTITLE10=Lullaby For Grandmother
EXTD=
EXTT0=
EXTT1=
EXTT2=
EXTT3=
EXTT4=
EXTT5=
EXTT6=
EXTT7=
EXTT8=
EXTT9=
EXTT10=
PLAYORDER=
